<svg width="40" height="40" fill="none" xmlns="http://www.w3.org/2000/svg"><path d="M15.36 26.732h-3.653v-7.138c0-.87.058-1.625.058-2.38-.232.29-.522.58-.812.87l-1.508 1.278-1.856-2.322 4.582-3.772h3.247l-.058 13.464zm7.888-13.638c1.392 0 2.494.29 3.306.87.812.58 1.16 1.393 1.16 2.438 0 .696-.174 1.334-.58 1.915-.348.522-.928 1.045-1.74 1.393.986.58 1.682 1.16 2.088 1.683.405.58.58 1.16.58 1.799 0 1.219-.407 2.147-1.276 2.786-.87.638-2.03.986-3.596.986-1.566 0-2.784-.348-3.596-.986-.812-.639-1.218-1.567-1.218-2.728 0-.755.174-1.45.58-2.031.406-.523.986-1.045 1.856-1.51-.696-.463-1.218-.986-1.566-1.566-.348-.523-.464-1.16-.464-1.8 0-1.044.406-1.798 1.16-2.379.754-.638 1.856-.87 3.306-.87zm-1.624 9.982c0 .406.39 1.287 1.508 1.277 1.117-.01 1.635-.673 1.624-1.22-.012-.546-.315-.815-.632-1.141-.316-.327-.431-.413-.934-.715-.522.29-.67.4-.975.715-.304.314-.591.736-.591 1.084zm1.566-7.37c-.302.004-.627.12-.8.286a.97.97 0 00-.302.7c0 .522.348.987 1.044 1.393.464-.232.696-.465.87-.697.174-.232.232-.464.232-.696 0-.29-.063-.481-.257-.697-.194-.215-.486-.295-.787-.29zm10.613 5.513h-3.248v-2.38h3.248v-3.25h2.32v3.25h3.306v2.38H36.18v3.191h-2.32v-3.19h-.058z" fill="#fff"/><path opacity=".7" d="M33.281 27.95c-2.784 5.108-8.12 8.532-14.325 8.532C9.966 36.482 2.66 29.054 2.66 20c0-9.054 7.308-16.482 16.297-16.482 6.148 0 11.541 3.424 14.325 8.531h2.32c-2.958-6.268-9.28-10.62-16.645-10.62C8.806 1.428.572 9.727.572 19.998c0 10.273 8.235 18.572 18.384 18.572 7.308 0 13.687-4.352 16.645-10.62h-2.32z" fill="#FF002E"/></svg>