<svg width="110" height="24" fill="none" xmlns="http://www.w3.org/2000/svg"><g clip-path="url(#clip0_519_421)"><g clip-path="url(#clip1_519_421)"><g clip-path="url(#clip2_519_421)"><path d="M6.86 23.75a10.265 10.265 0 01-6.857-2.307l1.978-3.495c1.649 1.12 3.1 1.714 4.484 1.714a1.89 1.89 0 001.121-.264.798.798 0 00.396-.594.594.594 0 00-.066-.33.515.515 0 00-.264-.264c-.132-.066-.198-.132-.33-.198a3.212 3.212 0 00-.462-.195 4.547 4.547 0 01-.528-.197 3.06 3.06 0 00-.593-.198 10.429 10.429 0 01-3.89-1.98 3.824 3.824 0 01-1.12-2.836 4.515 4.515 0 011.846-3.825 8.068 8.068 0 014.879-1.384c2.28-.054 4.52.615 6.397 1.912l-1.913 3.363a8.657 8.657 0 00-4.088-1.319 1.89 1.89 0 00-1.121.264.633.633 0 00-.396.594c0 .264.132.462.462.66a9.215 9.215 0 001.648.659c1.25.427 2.464.957 3.627 1.582a4.114 4.114 0 011.782 3.495 4.304 4.304 0 01-2.044 3.825 8.753 8.753 0 01-4.948 1.319zm9.497-.33V1h5.67v22.42h-5.67zm16.156.397c-2.506 0-4.55-.725-6-2.243-1.452-1.517-2.177-3.494-2.177-6s.725-4.55 2.242-6c1.45-1.518 3.428-2.243 6.001-2.243 2.638 0 4.616.725 6.067 2.176 1.45 1.45 2.176 3.495 2.176 6.066 0 2.506-.725 4.485-2.176 6.001a8.65 8.65 0 01-6.133 2.243zm-2.835-8.243c0 2.572.923 3.825 2.835 3.825 1.913 0 2.838-1.253 2.838-3.825s-.923-3.825-2.836-3.825c-1.848 0-2.837 1.251-2.837 3.825zm23.937 2.506l1.583 3.89a8.714 8.714 0 01-5.54 1.783 5.668 5.668 0 01-4.217-1.585c-1.055-1.055-1.583-2.505-1.583-4.484v-6.33h-1.98V7.66h1.977V2.847h5.606v4.88h4.681v3.692h-4.681v5.606c0 1.253.659 1.912 1.912 1.912a4.524 4.524 0 002.242-.857z" fill="#0255C2"/><path d="M67.86 18.08l1.582 3.89a8.714 8.714 0 01-5.54 1.783 5.668 5.668 0 01-4.217-1.585c-1.055-1.055-1.583-2.505-1.583-4.484v-6.33h-1.98V7.66h1.977V2.847h5.606v4.88h4.681v3.692h-4.681v5.606c0 1.253.659 1.912 1.912 1.912a4.305 4.305 0 002.242-.857zm3.033 5.342V7.727h5.605v15.695h-5.605zm15.761.328a7.893 7.893 0 01-5.54-2.043c-1.516-1.385-2.308-3.361-2.308-6.001 0-2.572.792-4.616 2.308-6.133 1.583-1.517 3.564-2.242 6.067-2.242a8.447 8.447 0 014.023.989 6.362 6.362 0 012.835 2.902l-4.154 2.176a2.847 2.847 0 00-4.682-.726c-.594.594-.857 1.583-.857 2.902 0 1.253.264 2.176.791 2.77a2.506 2.506 0 001.979.857c1.188 0 2.242-.725 3.033-2.11l4.023 2.11c-1.32 3.032-3.892 4.55-7.518 4.55zM102.81 7.33a7.744 7.744 0 015.209 1.715c1.319 1.121 1.978 2.77 1.978 4.814v9.562h-4.814v-1.649a6.023 6.023 0 01-4.682 1.979 5.552 5.552 0 01-3.89-1.32 4.44 4.44 0 01-1.451-3.563 4.584 4.584 0 011.12-3.1 6.577 6.577 0 012.836-1.713 13.34 13.34 0 013.759-.462c.706.005 1.41.049 2.111.132a1.84 1.84 0 00-.792-1.649 2.98 2.98 0 00-1.912-.527 8.064 8.064 0 00-4.616 1.648l-2.11-3.363a9.035 9.035 0 013.23-1.847 11.97 11.97 0 014.024-.656zm-.726 12.332a2.639 2.639 0 001.913-.791 3.138 3.138 0 00.923-2.11h-1.782c-1.714 0-2.571.527-2.571 1.516a1.344 1.344 0 00.395.99 1.318 1.318 0 001.122.395z" fill="#000"/></g></g></g><defs><clipPath id="clip0_519_421"><path fill="#fff" transform="translate(0 1)" d="M0 0h110v22.817H0z"/></clipPath><clipPath id="clip1_519_421"><path fill="#fff" transform="translate(0 1)" d="M0 0h110v22.817H0z"/></clipPath><clipPath id="clip2_519_421"><path fill="#fff" transform="translate(.003 1)" d="M0 0h109.994v22.817H0z"/></clipPath></defs></svg>