<svg width="116" height="24" fill="none" xmlns="http://www.w3.org/2000/svg"><g clip-path="url(#clip0_519_509)"><mask id="a" style="mask-type:luminance" maskUnits="userSpaceOnUse" x="0" y="0" width="116" height="24"><path d="M116 0H0v24h116V0z" fill="#fff"/></mask><g mask="url(#a)"><path d="M7.232 23.93A10.843 10.843 0 010 21.504l2.086-3.676c1.739 1.179 3.269 1.803 4.73 1.803.413.032.826-.065 1.181-.278a.84.84 0 00.418-.625.623.623 0 00-.07-.347.543.543 0 00-.278-.277c-.139-.07-.208-.139-.348-.208a3.348 3.348 0 00-.487-.205 4.785 4.785 0 01-.557-.208 3.233 3.233 0 00-.626-.208 11.006 11.006 0 01-4.101-2.083 4.021 4.021 0 01-1.183-2.983 4.738 4.738 0 011.948-4.023A8.524 8.524 0 017.858 6.73a11.41 11.41 0 016.746 2.011l-2.017 3.538a9.147 9.147 0 00-4.312-1.388 1.997 1.997 0 00-1.182.278.669.669 0 00-.417.625c0 .278.139.486.487.693a9.724 9.724 0 001.738.694 25.497 25.497 0 013.825 1.665 4.33 4.33 0 011.88 3.676 4.518 4.518 0 01-2.156 4.023 9.248 9.248 0 01-5.218 1.387zm10.015-.346V0h5.979v23.584h-5.979zM34.285 24c-2.642 0-4.798-.763-6.328-2.359-1.53-1.595-2.295-3.675-2.295-6.311s.765-4.786 2.365-6.312c1.53-1.596 3.614-2.359 6.328-2.359 2.782 0 4.868.763 6.398 2.289 1.53 1.526 2.295 3.676 2.295 6.381 0 2.636-.765 4.717-2.295 6.312a9.136 9.136 0 01-6.468 2.36zm-2.99-8.67c0 2.705.974 4.023 2.99 4.023 2.018 0 2.993-1.318 2.993-4.023 0-2.705-.974-4.023-2.99-4.023-1.95 0-2.993 1.316-2.993 4.023zm25.245 2.636l1.669 4.092a9.205 9.205 0 01-5.842 1.874 5.992 5.992 0 01-4.448-1.666c-1.113-1.11-1.67-2.636-1.67-4.717V10.89h-2.088V7.006h2.086V1.942h5.911v5.133h4.938v3.885h-4.938v5.896c0 1.318.695 2.012 2.017 2.012a4.78 4.78 0 002.365-.902z" fill="#1245FF"/><path d="M71.561 17.966l1.67 4.092a9.205 9.205 0 01-5.842 1.874 5.992 5.992 0 01-4.448-1.666c-1.113-1.11-1.67-2.636-1.67-4.717V10.89h-2.089V7.006h2.087V1.942h5.91v5.133h4.938v3.885H67.18v5.896c0 1.318.695 2.012 2.017 2.012a4.547 4.547 0 002.364-.902zm3.199 5.618V7.075h5.912v16.51H74.76zm16.622.346a8.336 8.336 0 01-5.842-2.15c-1.6-1.456-2.434-3.535-2.434-6.312 0-2.705.835-4.855 2.434-6.45 1.67-1.596 3.758-2.359 6.398-2.359A8.924 8.924 0 0196.18 7.7a6.701 6.701 0 012.991 3.053L94.79 13.04a2.996 2.996 0 00-2.264-1.698 3.013 3.013 0 00-2.674.936c-.626.624-.904 1.664-.904 3.052 0 1.318.278 2.289.835 2.913a2.645 2.645 0 002.086.902c1.253 0 2.365-.762 3.199-2.22l4.242 2.22c-1.391 3.19-4.103 4.786-7.928 4.786zM108.42 6.659a8.184 8.184 0 015.494 1.803c1.391 1.18 2.086 2.914 2.086 5.064v10.058h-5.077V21.85a6.354 6.354 0 01-4.937 2.08 5.867 5.867 0 01-4.104-1.387 4.66 4.66 0 01-1.53-3.748 4.82 4.82 0 011.182-3.26 6.944 6.944 0 012.991-1.803 14.102 14.102 0 013.964-.486c.744.005 1.487.051 2.226.139a1.93 1.93 0 00-.835-1.734 3.15 3.15 0 00-2.017-.555 8.517 8.517 0 00-4.868 1.734l-2.225-3.538a9.528 9.528 0 013.407-1.942 12.649 12.649 0 014.243-.691zm-.765 12.971a2.795 2.795 0 002.017-.832 3.3 3.3 0 00.974-2.22h-1.879c-1.808 0-2.713.555-2.713 1.595a1.41 1.41 0 00.418 1.04 1.39 1.39 0 001.183.417z" fill="#fff"/></g></g><defs><clipPath id="clip0_519_509"><path fill="#fff" d="M0 0h116v24H0z"/></clipPath></defs></svg>